# xmcd
#
# Track frame offsets: 
#        150
#        24019
#        52265
#        80464
#        102795
#        126178
#        159050
#        184645
#        204128
#        227962
#
# Disc length: 3353 seconds
#
# Revision: 0
# Processed by: cddbd v1.5.2PL0 Copyright (c) Steve Scherf et al.
# Submitted via: ExactAudioCopy v0.95b4
#
DISCID=6f0d170a
DTITLE=John Campbell - Howlin' Mercy
DYEAR=1900
DGENRE=Blues
TTITLE0=Ain't Afraid of Midnight
TTITLE1=When the Levee Breaks
TTITLE2=Down in the Hole
TTITLE3=Look What Love Can Do
TTITLE4=Saddle Up My Pony
TTITLE5=Firin' Line
TTITLE6=Love's Name
TTITLE7=Written in Stone
TTITLE8=Wiseblood
TTITLE9=Wolf Among the Lambs
EXTD=1. Ain't Afraid of Midnight \n2. When the Levee Breaks \n3. Down 
EXTD=in the Hole \n4. Look What Love Can Do \n5. Saddle Up My Pony \n6
EXTD=Firin' Line \n7. Love's Name \n8. Written in Stone \n9. Wiseblo
EXTD=od \n10. Wolf Among the Lambs\n
EXTT0=
EXTT1=
EXTT2=
EXTT3=
EXTT4=
EXTT5=
EXTT6=
EXTT7=
EXTT8=
EXTT9=
PLAYORDER=
